<svg height="456pt" viewBox="0 -32 456 456" width="456pt" xmlns="http://www.w3.org/2000/svg"><path d="m4 372v-320h400v320c0 8.839844-7.160156 16-16 16h-368c-8.839844 0-16-7.160156-16-16zm0 0" fill="#005b8a"/><path d="m388 392h-368c-11.023438 0-20-8.976562-20-20v-320c0-2.207031 1.792969-4 4-4h400c2.207031 0 4 1.792969 4 4v320c0 11.023438-8.976562 20-20 20zm-380-336v316c0 6.617188 5.382812 12 12 12h368c6.617188 0 12-5.382812 12-12v-316zm0 0" fill="#212a41"/><path d="m388 4h-368c-8.839844 0-16 7.160156-16 16v32h400v-32c0-8.839844-7.160156-16-16-16zm0 0" fill="#c2c2c2"/><path d="m404 56h-400c-2.207031 0-4-1.792969-4-4v-32c0-11.023438 8.976562-20 20-20h368c11.023438 0 20 8.976562 20 20v32c0 2.207031-1.792969 4-4 4zm-396-8h392v-28c0-6.617188-5.382812-12-12-12h-368c-6.617188 0-12 5.382812-12 12zm0 0" fill="#212a41"/><path d="m28 372v-320h400v320c0 8.839844-7.160156 16-16 16h-368c-8.839844 0-16-7.160156-16-16zm0 0" fill="#0079a8"/><path d="m412 392h-368c-11.023438 0-20-8.976562-20-20v-320c0-2.207031 1.792969-4 4-4h400c2.207031 0 4 1.792969 4 4v320c0 11.023438-8.976562 20-20 20zm-380-336v316c0 6.617188 5.382812 12 12 12h368c6.617188 0 12-5.382812 12-12v-316zm0 0" fill="#212a41"/><path d="m44 376c-2.207031 0-4-1.792969-4-4v-304c0-2.207031 1.792969-4 4-4s4 1.792969 4 4v304c0 2.207031-1.792969 4-4 4zm0 0" fill="#1e97c6"/><path d="m412 376c-2.207031 0-4-1.792969-4-4v-304c0-2.207031 1.792969-4 4-4s4 1.792969 4 4v304c0 2.207031-1.792969 4-4 4zm0 0" fill="#005b8a"/><path d="m412 4h-368c-8.839844 0-16 7.160156-16 16v32h400v-32c0-8.839844-7.160156-16-16-16zm0 0" fill="#e0e0e0"/><path d="m428 56h-400c-2.207031 0-4-1.792969-4-4v-32c0-11.023438 8.976562-20 20-20h368c11.023438 0 20 8.976562 20 20v32c0 2.207031-1.792969 4-4 4zm-396-8h392v-28c0-6.617188-5.382812-12-12-12h-368c-6.617188 0-12 5.382812-12 12zm0 0" fill="#212a41"/><path d="m364 32h-16c-2.207031 0-4-1.792969-4-4s1.792969-4 4-4h16c2.207031 0 4 1.792969 4 4s-1.792969 4-4 4zm0 0" fill="#212a41"/><path d="m404 40c-1.023438 0-2.046875-.390625-2.832031-1.167969l-16-16c-1.558594-1.558593-1.558594-4.097656 0-5.65625 1.558593-1.558593 4.097656-1.558593 5.65625 0l16 16c1.558593 1.558594 1.558593 4.097657 0 5.65625-.777344.777344-1.800781 1.167969-2.824219 1.167969zm0 0" fill="#212a41"/><path d="m388 40c-1.023438 0-2.046875-.390625-2.832031-1.167969-1.558594-1.558593-1.558594-4.097656 0-5.65625l16-16c1.558593-1.558593 4.097656-1.558593 5.65625 0 1.558593 1.558594 1.558593 4.097657 0 5.65625l-16 16c-.777344.777344-1.800781 1.167969-2.824219 1.167969zm0 0" fill="#212a41"/><path d="m436 300h-176c-8.839844 0-16-7.160156-16-16v-128c0-8.839844 7.160156-16 16-16h176c8.839844 0 16 7.160156 16 16v128c0 8.839844-7.160156 16-16 16zm0 0" fill="#f9ac2f"/><path d="m436 304h-176c-11.023438 0-20-8.976562-20-20v-128c0-11.023438 8.976562-20 20-20h176c11.023438 0 20 8.976562 20 20v128c0 11.023438-8.976562 20-20 20zm-176-160c-6.617188 0-12 5.382812-12 12v128c0 6.617188 5.382812 12 12 12h176c6.617188 0 12-5.382812 12-12v-128c0-6.617188-5.382812-12-12-12zm0 0" fill="#212a41"/><path d="m260 288c-2.207031 0-4-1.792969-4-4v-128c0-2.207031 1.792969-4 4-4s4 1.792969 4 4v128c0 2.207031-1.792969 4-4 4zm0 0" fill="#ffca4d"/><path d="m436 288c-2.207031 0-4-1.792969-4-4v-128c0-2.207031 1.792969-4 4-4s4 1.792969 4 4v128c0 2.207031-1.792969 4-4 4zm0 0" fill="#db8e11"/><g fill="#212a41"><path d="m296 212c-2.207031 0-4-1.792969-4-4v-44h-4c-2.207031 0-4-1.792969-4-4s1.792969-4 4-4h8c2.207031 0 4 1.792969 4 4v48c0 2.207031-1.792969 4-4 4zm0 0"/><path d="m304 212h-16c-2.207031 0-4-1.792969-4-4s1.792969-4 4-4h16c2.207031 0 4 1.792969 4 4s-1.792969 4-4 4zm0 0"/><path d="m296 284c-2.207031 0-4-1.792969-4-4v-44h-4c-2.207031 0-4-1.792969-4-4s1.792969-4 4-4h8c2.207031 0 4 1.792969 4 4v48c0 2.207031-1.792969 4-4 4zm0 0"/><path d="m304 284h-16c-2.207031 0-4-1.792969-4-4s1.792969-4 4-4h16c2.207031 0 4 1.792969 4 4s-1.792969 4-4 4zm0 0"/><path d="m344 284c-2.207031 0-4-1.792969-4-4v-44h-4c-2.207031 0-4-1.792969-4-4s1.792969-4 4-4h8c2.207031 0 4 1.792969 4 4v48c0 2.207031-1.792969 4-4 4zm0 0"/><path d="m352 284h-16c-2.207031 0-4-1.792969-4-4s1.792969-4 4-4h16c2.207031 0 4 1.792969 4 4s-1.792969 4-4 4zm0 0"/><path d="m392 212c-2.207031 0-4-1.792969-4-4v-44h-4c-2.207031 0-4-1.792969-4-4s1.792969-4 4-4h8c2.207031 0 4 1.792969 4 4v48c0 2.207031-1.792969 4-4 4zm0 0"/><path d="m400 212h-16c-2.207031 0-4-1.792969-4-4s1.792969-4 4-4h16c2.207031 0 4 1.792969 4 4s-1.792969 4-4 4zm0 0"/><path d="m344 212c-11.023438 0-20-8.976562-20-20v-16c0-11.023438 8.976562-20 20-20s20 8.976562 20 20v16c0 11.023438-8.976562 20-20 20zm0-48c-6.617188 0-12 5.382812-12 12v16c0 6.617188 5.382812 12 12 12s12-5.382812 12-12v-16c0-6.617188-5.382812-12-12-12zm0 0"/><path d="m392 284c-11.023438 0-20-8.976562-20-20v-16c0-11.023438 8.976562-20 20-20s20 8.976562 20 20v16c0 11.023438-8.976562 20-20 20zm0-48c-6.617188 0-12 5.382812-12 12v16c0 6.617188 5.382812 12 12 12s12-5.382812 12-12v-16c0-6.617188-5.382812-12-12-12zm0 0"/><path d="m180 136h-80c-2.207031 0-4-1.792969-4-4s1.792969-4 4-4h80c2.207031 0 4 1.792969 4 4s-1.792969 4-4 4zm0 0"/><path d="m180 168h-80c-2.207031 0-4-1.792969-4-4s1.792969-4 4-4h80c2.207031 0 4 1.792969 4 4s-1.792969 4-4 4zm0 0"/><path d="m180 280h-80c-2.207031 0-4-1.792969-4-4s1.792969-4 4-4h80c2.207031 0 4 1.792969 4 4s-1.792969 4-4 4zm0 0"/><path d="m180 312h-80c-2.207031 0-4-1.792969-4-4s1.792969-4 4-4h80c2.207031 0 4 1.792969 4 4s-1.792969 4-4 4zm0 0"/></g><path d="m192 340c-6.632812 0-12-5.367188-12-12v-49.175781c0-12.410157-6.566406-24.152344-17.136719-30.664063l-58.3125-35.878906c-17.605469-10.839844-28.550781-30.425781-28.550781-51.105469v-49.175781c0-6.632812 5.367188-12 12-12s12 5.367188 12 12v49.175781c0 12.410157 6.566406 24.152344 17.136719 30.664063l58.3125 35.878906c17.605469 10.839844 28.550781 30.425781 28.550781 51.105469v49.175781c0 6.632812-5.367188 12-12 12zm0 0" fill="#b7c0d7"/><path d="m192 344c-8.824219 0-16-7.175781-16-16v-49.175781c0-11.023438-5.832031-21.472657-15.230469-27.257813l-58.3125-35.878906c-18.785156-11.558594-30.457031-32.449219-30.457031-54.503906v-49.183594c0-8.824219 7.175781-16 16-16s16 7.175781 16 16v49.175781c0 11.023438 5.832031 21.472657 15.230469 27.257813l58.3125 35.878906c18.785156 11.558594 30.457031 32.449219 30.457031 54.503906v49.183594c0 8.824219-7.175781 16-16 16zm-104-240c-4.40625 0-8 3.59375-8 8v49.175781c0 19.304688 10.207031 37.578125 26.65625 47.6875l58.3125 35.878907c11.742188 7.234374 19.03125 20.289062 19.03125 34.066406v49.191406c0 4.40625 3.59375 8 8 8s8-3.59375 8-8v-49.175781c0-19.304688-10.207031-37.578125-26.65625-47.6875l-58.3125-35.878907c-11.742188-7.234374-19.03125-20.289062-19.03125-34.066406v-49.191406c0-4.40625-3.59375-8-8-8zm0 0" fill="#212a41"/><path d="m88 340c-6.632812 0-12-5.367188-12-12v-49.175781c0-20.671875 10.945312-40.257813 28.550781-51.097657l58.3125-35.878906c10.570313-6.511718 17.136719-18.261718 17.136719-30.671875v-49.175781c0-6.632812 5.367188-12 12-12s12 5.367188 12 12v49.175781c0 20.671875-10.945312 40.257813-28.550781 51.097657l-58.3125 35.878906c-10.570313 6.511718-17.136719 18.261718-17.136719 30.671875v49.175781c0 6.632812-5.367188 12-12 12zm0 0" fill="#b7c0d7"/><path d="m88 344c-8.824219 0-16-7.175781-16-16v-49.175781c0-22.054688 11.671875-42.945313 30.457031-54.503907l58.3125-35.878906c9.390625-5.785156 15.230469-16.234375 15.230469-27.257812v-49.183594c0-8.824219 7.175781-16 16-16s16 7.175781 16 16v49.175781c0 22.054688-11.671875 42.945313-30.457031 54.503907l-58.3125 35.878906c-9.390625 5.785156-15.230469 16.234375-15.230469 27.257812v49.183594c0 8.824219-7.175781 16-16 16zm104-240c-4.40625 0-8 3.59375-8 8v49.175781c0 13.785157-7.296875 26.832031-19.03125 34.0625l-58.3125 35.882813c-16.441406 10.117187-26.65625 28.390625-26.65625 47.6875v49.191406c0 4.40625 3.59375 8 8 8s8-3.59375 8-8v-49.175781c0-13.785157 7.296875-26.832031 19.03125-34.0625l58.3125-35.882813c16.441406-10.117187 26.65625-28.390625 26.65625-47.6875v-49.191406c0-4.40625-3.59375-8-8-8zm0 0" fill="#212a41"/></svg>